HIERARCHY
ROOT Hips
{
	OFFSET 0.000000 0.000000 0.000000
	CHANNELS 6 Xposition Yposition Zposition Xrotation Yrotation Zrotation
	JOINT LeftUpLeg_virtual
	{
		OFFSET 0.000000 0.000000 0.000000
		CHANNELS 3 Xrotation Yrotation Zrotation
		JOINT LeftUpLeg
		{
			OFFSET 15.427100 -6.655098 0.678600
			CHANNELS 3 Xrotation Yrotation Zrotation
			JOINT LeftLeg
			{
				OFFSET 4.081073 -39.591068 13.024000
				CHANNELS 3 Xrotation Yrotation Zrotation
				JOINT LeftFoot
				{
					OFFSET -4.081074 -37.707932 -15.979700
					CHANNELS 3 Xrotation Yrotation Zrotation
					JOINT LeftToeBase
					{
						OFFSET 5.346399 -15.068900 20.645000
						CHANNELS 3 Xrotation Yrotation Zrotation
						JOINT LeftToe_End
						{
							OFFSET 2.754700 0.931300 11.300900
							CHANNELS 3 Xrotation Yrotation Zrotation
							End Site
							{
								OFFSET 0 0 0
							}
						}
					}
				}
			}
		}
	}
	JOINT RightUpLeg_virtual
	{
		OFFSET 0.000000 0.000000 0.000000
		CHANNELS 3 Xrotation Yrotation Zrotation
		JOINT RightUpLeg
		{
			OFFSET -15.569500 -6.655098 0.678600
			CHANNELS 3 Xrotation Yrotation Zrotation
			JOINT RightLeg
			{
				OFFSET -4.081825 -39.591045 13.023800
				CHANNELS 3 Xrotation Yrotation Zrotation
				JOINT RightFoot
				{
					OFFSET 4.081824 -37.707954 -15.979600
					CHANNELS 3 Xrotation Yrotation Zrotation
					JOINT RightToeBase
					{
						OFFSET -5.346400 -15.068900 20.645000
						CHANNELS 3 Xrotation Yrotation Zrotation
						JOINT RightToe_End
						{
							OFFSET -2.754700 0.931300 11.300900
							CHANNELS 3 Xrotation Yrotation Zrotation
							End Site
							{
								OFFSET 0 0 0
							}
						}
					}
				}
			}
		}
	}
	JOINT Spine_virtual
	{
		OFFSET 0.000000 0.000000 0.000000
		CHANNELS 3 Xrotation Yrotation Zrotation
		JOINT Spine
		{
			OFFSET -0.279200 12.230698 -2.892100
			CHANNELS 3 Xrotation Yrotation Zrotation
			JOINT Spine1
			{
				OFFSET -0.232667 10.192268 -1.242267
				CHANNELS 3 Xrotation Yrotation Zrotation
				JOINT Spine1_split
				{
					OFFSET -0.232667 10.192268 -1.242267
					CHANNELS 3 Xrotation Yrotation Zrotation
					JOINT Spine2
					{
						OFFSET -0.232667 10.192268 -1.242267
						CHANNELS 3 Xrotation Yrotation Zrotation
						JOINT Neck_virtual
						{
							OFFSET 0.000000 0.000000 0.000000
							CHANNELS 3 Xrotation Yrotation Zrotation
							JOINT Neck
							{
								OFFSET -0.418800 17.814194 8.416900
								CHANNELS 3 Xrotation Yrotation Zrotation
								JOINT Head
								{
									OFFSET 0.000000 7.031097 3.806800
									CHANNELS 3 Xrotation Yrotation Zrotation
									JOINT HeadTop_End
									{
										OFFSET 0.000000 24.646606 12.978600
										CHANNELS 3 Xrotation Yrotation Zrotation
										End Site
										{
											OFFSET 0 0 0
										}
									}
								}
							}
						}
						JOINT LeftShoulder_virtual
						{
							OFFSET 0.000000 0.000000 0.000000
							CHANNELS 3 Xrotation Yrotation Zrotation
							JOINT LeftShoulder
							{
								OFFSET 8.476499 7.247704 -3.868750
								CHANNELS 3 Xrotation Yrotation Zrotation
								JOINT LeftShoulder_split
								{
									OFFSET 8.476499 7.247704 -3.868750
									CHANNELS 3 Xrotation Yrotation Zrotation
									JOINT LeftArm
									{
										OFFSET 9.308998 -2.777710 0.208600
										CHANNELS 3 Xrotation Yrotation Zrotation
										JOINT LeftForeArm
										{
											OFFSET 29.972298 0.000000 0.000000
											CHANNELS 3 Xrotation Yrotation Zrotation
											JOINT LeftHand
											{
												OFFSET 26.026505 0.000000 0.000000
												CHANNELS 3 Xrotation Yrotation Zrotation
												End Site
												{
													OFFSET 0 0 0
												}
											}
										}
									}
								}
							}
						}
						JOINT RightShoulder_virtual
						{
							OFFSET 0.000000 0.000000 0.000000
							CHANNELS 3 Xrotation Yrotation Zrotation
							JOINT RightShoulder
							{
								OFFSET -7.570500 7.247704 -3.868750
								CHANNELS 3 Xrotation Yrotation Zrotation
								JOINT RightShoulder_split
								{
									OFFSET -7.570500 7.247704 -3.868750
									CHANNELS 3 Xrotation Yrotation Zrotation
									JOINT RightArm
									{
										OFFSET -9.308998 -2.777710 0.208500
										CHANNELS 3 Xrotation Yrotation Zrotation
										JOINT RightForeArm
										{
											OFFSET -29.972300 0.000000 0.000000
											CHANNELS 3 Xrotation Yrotation Zrotation
											JOINT RightHand
											{
												OFFSET -26.026505 0.000000 0.000000
												CHANNELS 3 Xrotation Yrotation Zrotation
												End Site
												{
													OFFSET 0 0 0
												}
											}
										}
									}
								}
							}
						}
					}
				}
			}
		}
	}
}
MOTION
Frames: 6
Frame Time: 0.03333333
1.192967 93.395424 -1.155102 0.000000 0.000000 0.000000 -4.062526 -6.959313 -2.890714 -15.030931 12.377365 14.072769 21.622613 2.268885 3.033608 -3.043273 1.065436 -7.537464 -2.178035 0.114313 -0.138162 0.000000 0.000000 0.000000 -3.848561 -5.333606 -3.062782 1.536275 -9.164604 -1.575353 7.826111 -7.298321 -3.538253 -1.654290 -1.736005 4.489301 -6.284562 0.157221 0.580241 0.000000 0.000000 0.000000 -4.605677 -6.834767 -3.242692 4.046443 0.535753 2.465583 1.138388 0.191589 1.812190 0.959842 0.240896 -0.099962 0.000000 0.000000 0.000000 0.642606 0.436760 1.775660 5.296249 0.359159 0.052462 -4.791183 1.537352 -0.760111 0.000000 0.000000 0.000000 0.436247 0.489683 1.580096 1.508614 -15.983939 -12.871795 -2.583112 -0.150204 -1.411311 9.345561 -20.539718 -67.745429 -1.800551 -1.172085 0.548000 0.000000 0.000000 0.000000 0.735485 0.461964 1.797743 2.122869 12.606521 15.290425 -0.722412 1.945783 -0.639112 12.834379 28.255482 57.519134 0.591422 10.920108 0.884521 0.000000 0.000000 0.000000 
1.323046 93.399628 -1.146406 0.000000 0.000000 0.000000 -4.053772 -7.071993 -2.885858 -15.009023 12.324067 14.075776 21.749491 2.311608 2.981563 -3.126643 1.089414 -7.598693 -2.192588 0.112735 -0.148203 0.000000 0.000000 0.000000 -3.819490 -5.393363 -3.045694 1.548227 -9.279897 -1.581384 7.704108 -7.207901 -3.612709 -1.571744 -1.781272 4.446515 -6.179556 0.125612 0.630972 0.000000 0.000000 0.000000 -4.607811 -6.955825 -3.286952 4.075828 0.511156 2.482991 1.135506 0.180846 1.820474 0.937783 0.263844 -0.111768 0.000000 0.000000 0.000000 0.639098 0.438691 1.775681 5.306437 0.374065 0.065199 -4.813134 1.612819 -0.775169 0.000000 0.000000 0.000000 0.462363 0.479848 1.597533 1.499814 -16.044302 -12.868785 -2.565713 -0.240202 -1.448578 9.228771 -20.540430 -67.832050 -1.812354 -1.273424 0.556087 0.000000 0.000000 0.000000 0.737735 0.456963 1.818667 2.091199 12.622406 15.361562 -0.807919 1.941606 -0.626273 12.933785 28.251452 57.424966 0.611450 10.701434 0.925711 0.000000 0.000000 0.000000 
1.429027 93.404022 -1.138388 0.000000 0.000000 0.000000 -4.078747 -7.295937 -2.915518 -14.969522 12.291538 14.182064 21.999792 2.411078 2.886671 -3.313500 1.146336 -7.686800 -2.201105 0.114583 -0.166725 0.000000 0.000000 0.000000 -3.834987 -5.518693 -3.062579 1.500029 -9.414634 -1.588464 7.652789 -6.991199 -3.676360 -1.574353 -1.918781 4.379794 -6.072416 0.102302 0.664486 0.000000 0.000000 0.000000 -4.636851 -7.169896 -3.352013 4.123068 0.490106 2.527852 1.132671 0.166224 1.824035 0.909331 0.283735 -0.124437 0.000000 0.000000 0.000000 0.636705 0.434549 1.772391 5.326878 0.403007 0.072481 -4.862003 1.739780 -0.837508 0.000000 0.000000 0.000000 0.483375 0.467442 1.613306 1.482868 -16.123428 -12.868301 -2.476131 -0.291341 -1.512990 9.143121 -20.442816 -67.922871 -1.796810 -1.369245 0.563169 0.000000 0.000000 0.000000 0.726395 0.447237 1.839009 2.063543 12.702604 15.406827 -0.915195 1.942395 -0.623756 13.096223 28.214022 57.256680 0.576713 10.533576 1.014473 0.000000 0.000000 0.000000 
1.495854 93.406525 -1.135908 0.000000 0.000000 0.000000 -4.135372 -7.591840 -2.969825 -14.909813 12.280587 14.369900 22.301194 2.564191 2.755237 -3.565288 1.227631 -7.792366 -2.193774 0.119938 -0.192171 0.000000 0.000000 0.000000 -3.888183 -5.700954 -3.101528 1.369782 -9.566201 -1.597132 7.727545 -6.650259 -3.694735 -1.586304 -2.127039 4.348936 -6.026446 0.084461 0.675176 0.000000 0.000000 0.000000 -4.684728 -7.457639 -3.432422 4.183228 0.476386 2.593733 1.132158 0.152246 1.823549 0.894879 0.282534 -0.107212 0.000000 0.000000 0.000000 0.632817 0.427467 1.766422 5.349570 0.440312 0.076745 -4.934074 1.894204 -0.927511 0.000000 0.000000 0.000000 0.500844 0.455119 1.625810 1.454338 -16.215322 -12.870196 -2.362616 -0.255047 -1.593664 9.100081 -20.224866 -67.986180 -1.766360 -1.412015 0.569604 0.000000 0.000000 0.000000 0.710535 0.434747 1.855058 2.040025 12.837577 15.411536 -1.013283 1.934188 -0.622154 13.311596 28.201411 57.038889 0.510046 10.427973 1.119674 0.000000 0.000000 0.000000 
1.538257 93.391876 -1.143356 0.000000 0.000000 0.000000 -4.211976 -7.922682 -3.045456 -14.822812 12.284023 14.615582 22.593955 2.762139 2.596966 -3.832150 1.315063 -7.915371 -2.174901 0.126087 -0.218528 0.000000 0.000000 0.000000 -3.969056 -5.937142 -3.159463 1.159245 -9.730997 -1.595850 7.928204 -6.193811 -3.684508 -1.585341 -2.396827 4.382415 -6.113051 0.068182 0.654308 0.000000 0.000000 0.000000 -4.746774 -7.802817 -3.523422 4.248040 0.474339 2.674648 1.136660 0.143216 1.820906 0.902315 0.251942 -0.076967 0.000000 0.000000 0.000000 0.628475 0.422227 1.757281 5.369065 0.481035 0.082656 -5.018486 2.048414 -1.016513 0.000000 0.000000 0.000000 0.520523 0.446297 1.635082 1.418609 -16.311158 -12.858850 -2.236859 -0.135821 -1.681367 9.071988 -19.917170 -68.005516 -1.735661 -1.396317 0.569941 0.000000 0.000000 0.000000 0.700241 0.424543 1.864157 2.020576 13.013140 15.358560 -1.109657 1.902236 -0.610754 13.577458 28.275791 56.783761 0.442595 10.393180 1.210530 0.000000 0.000000 0.000000 
1.575246 93.358269 -1.158134 0.000000 0.000000 0.000000 -4.296653 -8.260047 -3.135287 -14.706154 12.288409 14.892997 22.853494 2.988266 2.428921 -4.055605 1.384814 -8.059411 -2.165367 0.131996 -0.236596 0.000000 0.000000 0.000000 -4.060530 -6.204047 -3.230475 0.899921 -9.899487 -1.570435 8.250378 -5.654976 -3.675350 -1.612611 -2.735098 4.434133 -6.275689 0.050604 0.610632 0.000000 0.000000 0.000000 -4.818244 -8.176315 -3.620585 4.308866 0.484883 2.765119 1.148773 0.143306 1.819261 0.918614 0.179372 -0.040247 0.000000 0.000000 0.000000 0.626717 0.423092 1.746647 5.389654 0.520751 0.090427 -5.097121 2.161913 -1.083766 0.000000 0.000000 0.000000 0.547441 0.443016 1.641832 1.381094 -16.399055 -12.823569 -2.129718 0.030370 -1.792987 9.043724 -19.557198 -67.982191 -1.712871 -1.325335 0.563438 0.000000 0.000000 0.000000 0.698852 0.419843 1.867346 2.003186 13.214643 15.245759 -1.195077 1.857172 -0.581463 13.863639 28.453851 56.537560 0.398716 10.424424 1.259352 0.000000 0.000000 0.000000 
